<svg width="296" height="80" viewBox="0 0 296 80" fill="none" xmlns="http://www.w3.org/2000/svg">
<path d="M34.2523 17.7004C41.9774 15.1004 42.479 5.5004 34.9546 5.5004C32.8477 5.5004 30.3395 7.00039 28.634 9.90039L18.4007 27.6004C17.8991 28.4004 17.4978 29.1004 16.8958 29.8004C14.2873 26.2004 14.9896 20.8004 18.7017 18.4004L17.1968 16.5004C9.17066 21.6004 11.5785 36.2004 24.9219 36.2004C36.2588 36.2004 41.5761 22.6004 34.2523 17.7004ZM24.8216 33.3004C22.5141 33.3004 20.8085 32.8004 19.3036 32.0004C20.0059 31.2004 20.6079 30.3004 21.2098 29.3004L27.6307 18.2004L28.634 18.3004C37.563 20.2004 34.0516 33.3004 24.8216 33.3004ZM28.935 16.0004L32.0451 10.7004C34.8542 5.90041 38.3657 8.70038 36.4595 12.3004C34.9546 15.1004 32.8477 15.9004 28.935 16.0004Z" fill="white"/>
<path d="M66.4571 30.0002C65.8552 32.2002 67.0591 34.1002 69.5673 34.1002C71.0722 34.1002 72.9784 33.1002 74.8846 31.6002C75.0852 33.1002 76.2891 34.1002 78.1953 34.1002C80.2019 34.1002 82.4091 32.7002 84.6162 30.7002C84.2149 32.7002 85.1179 34.1002 87.0241 34.1002C89.1309 34.1002 91.4384 32.2002 93.2443 30.5002C92.843 32.5002 94.0469 34.1002 96.4548 34.1002C99.5649 34.1002 103.177 30.7002 106.387 27.1002C106.387 27.0002 106.287 27.0002 106.287 26.9002C108.394 24.5002 110.199 21.9002 111.604 20.1002C110.099 24.0002 110.902 31.1002 107.29 31.1002C105.986 31.1002 105.484 29.7002 105.484 29.7002L103.076 30.9002C103.076 30.9002 103.779 34.0002 107.29 34.0002C107.691 34.0002 107.992 34.0002 108.394 33.9002H108.494C111.303 33.5002 114.012 31.8002 116.42 29.7002C116.52 32.2002 118.426 34.0002 121.536 34.0002C125.85 34.0002 130.164 30.6002 133.275 27.0002C132.974 26.5002 132.372 25.9002 131.87 25.7002L131.569 26.0002C128.86 29.2002 125.349 31.7002 122.64 31.7002C120.332 31.7002 118.928 30.2002 120.633 27.2002L121.035 26.5002C123.443 27.5002 128.058 27.0002 130.967 22.1002L131.469 21.2002C133.475 17.7002 131.569 15.1002 128.459 15.1002C125.349 15.1002 122.941 16.7002 121.336 19.5002L117.624 25.8002H117.523L117.222 26.1002C115.818 27.7002 114.112 29.2002 112.607 30.2002C113.811 26.6002 113.51 21.0002 115.918 16.2002L113.109 14.7002C111.504 16.9002 108.093 21.8002 104.682 25.8002L104.782 25.9002L104.682 26.1002C101.973 29.3002 99.2639 31.8002 97.5583 31.8002C96.7557 31.8002 96.2541 31.2002 97.157 29.7002L105.283 15.5002H101.471L94.7492 27.3002C91.8397 29.9002 89.6326 31.4002 88.9303 31.1002C88.0273 30.7002 88.9303 29.3002 89.4319 28.5002L96.8561 15.6002H93.0437L87.0241 26.0002C86.9237 25.9002 86.8234 25.9002 86.7231 25.8002L86.4221 26.1002C83.7133 29.3002 81.0045 31.8002 79.2989 31.8002C78.4963 31.8002 77.9947 31.2002 78.8976 29.7002L85.0175 19.0002H82.8104C82.9107 17.4002 81.3055 15.2002 78.7973 15.2002C76.7908 15.2002 73.8813 16.8002 72.2761 19.6002L68.4637 26.2002C68.263 26.0002 68.0624 25.9002 67.8617 25.8002L67.5607 26.1002C64.8519 29.3002 61.3405 31.8002 58.6317 31.8002C56.3242 31.8002 54.9196 30.3002 56.6251 27.3002L60.5379 20.5002C62.7451 16.7002 66.6578 17.4002 64.3503 21.3002L63.8487 22.2002H66.9588L67.4604 21.3002C69.4669 17.8002 67.5607 15.2002 64.4506 15.2002C61.3405 15.2002 58.9327 16.8002 57.3274 19.6002L53.515 26.1002C53.4147 26.0002 53.3144 26.0002 53.2141 25.9002L52.9131 26.2002C50.2043 29.4002 46.6928 31.9002 43.984 31.9002C41.6765 31.9002 40.2719 30.4002 41.9775 27.4002L42.3788 26.7002C44.7866 27.7002 49.4017 27.2002 52.3111 22.3002L52.8127 21.4002C54.8193 17.9002 52.9131 15.3002 49.803 15.3002C46.6928 15.3002 44.285 16.9002 42.6798 19.7002L38.6667 26.5002C36.2589 30.5002 38.3657 34.3002 42.8804 34.3002C46.1912 34.3002 49.6023 32.3002 52.3111 29.7002C52.2108 32.3002 54.2173 34.3002 57.4278 34.3002C60.6382 34.1002 63.7483 32.3002 66.4571 30.0002ZM124.646 20.4002C126.854 16.6002 130.766 17.3002 128.459 21.2002L127.957 22.1002C126.151 25.2002 123.643 25.1002 122.239 24.6002L124.646 20.4002ZM70.2696 29.7002L75.5869 20.5002C77.5934 17.0002 81.7068 17.9002 79.8006 21.3002L76.7908 26.5002C74.4833 30.1002 72.1757 31.8002 70.6709 31.8002C69.8682 31.7002 69.3666 31.2002 70.2696 29.7002ZM45.9906 20.4002C48.1977 16.6002 52.1105 17.3002 49.803 21.2002L49.3013 22.1002C47.4954 25.2002 44.9873 25.1002 43.5827 24.6002L45.9906 20.4002Z" fill="white"/>
<path d="M175.01 34.1004C179.324 34.1004 183.638 30.7004 186.748 27.1004C186.448 26.6004 185.846 26.0004 185.344 25.8004L185.043 26.1004C182.334 29.3004 178.823 31.8004 176.114 31.8004C173.806 31.8004 172.402 30.3004 174.107 27.3004L174.509 26.6004C176.916 27.6004 181.532 27.1004 184.441 22.2004L184.943 21.3004C186.949 17.8004 185.043 15.2004 181.933 15.2004C178.823 15.2004 176.415 16.8004 174.81 19.6004L171.098 25.9004C171.098 25.9004 170.997 25.9004 170.997 25.8004L170.696 26.1004C167.987 29.3004 165.279 31.8004 163.573 31.8004C162.77 31.8004 162.269 31.2004 163.172 29.7004L168.69 20.1004C170.295 17.2004 168.79 15.1004 166.683 15.1004C165.078 15.1004 163.272 16.0004 161.366 18.0004L167.486 7.5004H163.573L152.838 26.0004C152.738 25.9004 152.537 25.8004 152.437 25.7004L152.136 26.0004C149.427 29.2004 146.718 31.7004 145.013 31.7004C144.21 31.7004 143.708 31.1004 144.611 29.6004L152.738 15.4004H155.848L156.952 13.6004H153.841L157.453 7.40039H153.641L150.029 13.6004H146.618L145.514 15.4004H149.026L141.401 28.6004C139.796 31.4004 140.899 34.0004 144.009 34.0004C145.916 34.0004 147.922 32.8004 150.029 31.0004L148.524 33.6004H152.337L158.155 23.6004C163.974 16.3004 166.583 17.2004 164.978 20.0004L160.062 28.6004C158.456 31.4004 159.56 34.0004 162.67 34.0004C164.978 34.0004 167.586 32.2004 169.994 29.8004C169.994 32.3004 171.9 34.1004 175.01 34.1004ZM178.12 20.4004C180.328 16.6004 184.24 17.3004 181.933 21.2004L181.431 22.1004C179.625 25.2004 177.117 25.1004 175.713 24.6004L178.12 20.4004Z" fill="white"/>
<path d="M290.386 25.8004L290.085 26.1004C287.376 29.3004 284.667 31.8004 282.962 31.8004C282.159 31.8004 281.657 31.2004 282.56 29.7004L295.402 7.5004H291.59L285.971 17.1004C285.269 16.0004 284.065 15.1004 282.46 15.1004C280.453 15.1004 277.544 16.7004 275.939 19.5004L272.227 25.9004C272.126 25.9004 272.026 25.8004 272.026 25.8004L271.725 26.1004C269.016 29.3004 266.307 31.8004 264.602 31.8004C263.799 31.8004 263.298 31.2004 264.201 29.7004L269.719 20.1004C271.324 17.2004 269.819 15.1004 267.712 15.1004C266.107 15.1004 264.301 16.0004 262.395 17.9004L263.799 15.4004H259.987L253.867 25.9004C253.767 25.8004 253.666 25.7004 253.466 25.7004L253.165 26.0004C250.456 29.2004 247.747 31.7004 246.041 31.7004C245.239 31.7004 244.737 31.1004 245.64 29.6004L251.76 18.9004H249.854C249.954 17.3004 248.349 15.1004 245.841 15.1004C243.834 15.1004 240.925 16.7004 239.32 19.5004L235.608 25.8004L235.407 26.0004C232.698 29.2004 229.989 31.7004 228.284 31.7004C227.481 31.7004 226.979 31.1004 227.882 29.6004L231.695 23.0004C232.999 20.7004 232.397 19.4004 231.193 17.9004L229.086 15.3004C228.585 14.6004 228.585 13.8004 229.287 13.1004L227.28 10.9004C225.073 12.8004 224.973 15.0004 226.277 16.7004L226.578 17.1004C224.873 19.5004 222.665 22.7004 220.157 25.6004C220.258 25.7004 220.358 25.8004 220.458 25.9004C217.348 29.5004 214.639 31.8004 211.63 33.1004L216.445 24.9004H212.733L212.332 25.6004C210.325 29.1004 208.018 31.7004 205.008 31.7004C202.399 31.7004 201.898 29.1004 204.205 25.2004L205.309 23.3004C206.011 23.4004 206.714 23.5004 207.516 23.5004C221.06 23.5004 227.581 5.40039 215.643 5.40039C213.536 5.40039 211.028 6.90038 209.322 9.80038L203.403 20.0004C201.196 18.8004 199.992 16.7004 199.992 14.6004C199.992 12.8004 200.794 11.1004 202.399 9.80038L201.196 7.6004C198.487 9.5004 197.283 12.1004 197.283 14.7004C197.283 17.7004 198.988 20.6004 202.098 22.2004L200.995 24.2004C198.286 28.8004 198.788 33.9004 204.205 33.9004C205.811 33.9004 207.215 33.4004 208.319 32.7004L207.315 34.4004C202.199 36.0004 198.988 38.0004 198.988 40.9004C198.988 44.5004 204.607 45.3004 207.315 40.6004L210.225 35.6004C214.138 34.4004 218.05 31.7004 222.264 26.8004C222.164 26.7004 222.164 26.6004 222.063 26.4004C223.769 24.4004 225.174 22.5004 228.083 18.6004L228.585 19.2004C229.086 19.8004 229.287 20.6004 228.785 21.4004L224.772 28.4004C223.167 31.2004 224.271 33.8004 227.381 33.8004C229.287 33.8004 231.394 32.6004 233.4 30.8004C233.4 32.5004 234.504 33.8004 236.711 33.8004C238.216 33.8004 240.122 32.8004 242.028 31.3004C242.229 32.8004 243.433 33.8004 245.339 33.8004C247.145 33.8004 249.152 32.7004 251.058 31.0004L249.653 33.4004H253.466L259.285 23.3004C265.104 16.0004 267.712 17.0004 266.006 19.8004L261.09 28.4004C259.485 31.2004 260.589 33.8004 263.699 33.8004C265.705 33.8004 267.913 32.4004 270.12 30.5004C269.919 32.4004 271.123 33.8004 273.431 33.8004C274.936 33.8004 276.842 32.8004 278.748 31.3004C278.949 32.8004 280.152 33.8004 282.059 33.8004C285.169 33.8004 288.781 30.4004 291.991 26.8004C291.59 26.6004 290.887 26.0004 290.386 25.8004ZM212.231 11.6004C213.335 9.7004 214.639 8.80038 215.643 8.80038C221.662 8.80038 217.448 21.1004 207.516 21.1004H206.714L212.231 11.6004ZM204.105 40.2004C203.302 41.6004 201.998 41.4004 201.998 40.4004C201.998 39.4004 202.901 38.3004 205.811 37.2004L204.105 40.2004ZM243.935 26.4004C241.627 30.0004 239.32 31.7004 237.815 31.7004C237.012 31.7004 236.51 31.1004 237.413 29.6004L242.731 20.4004C244.737 16.9004 248.851 17.8004 246.944 21.2004L243.935 26.4004ZM280.754 26.2004C278.447 30.0004 276.139 31.7004 274.534 31.7004C273.732 31.7004 273.23 31.1004 274.133 29.6004L279.45 20.4004C281.457 16.9004 285.57 17.8004 283.664 21.2004L280.754 26.2004Z" fill="white"/>
<path d="M163.272 61.8L162.971 62.1C160.262 65.3 157.554 67.8 155.848 67.8C155.045 67.8 154.544 67.2 155.447 65.7L160.965 56.1C162.57 53.2 161.065 51.1 158.958 51.1C157.353 51.1 155.547 52 153.641 53.9L155.045 51.4H151.233L145.113 62C144.912 61.9 144.812 61.8 144.611 61.7L144.31 62C142.605 63.9 140.498 64.8 138.592 64.8L142.204 58.6C144.511 54.6 142.404 50.9 138.792 50.9C135.883 50.9 133.576 52.1 131.368 55.9L129.462 59.1L127.857 61.9C127.757 61.8 127.656 61.8 127.556 61.7L127.255 62C124.145 65.6 121.436 67.9 118.426 69.2L128.86 51.4H125.048L118.326 63.1C115.416 65.8 113.109 67.3 112.407 67C111.504 66.6 112.407 65.2 112.908 64.4L120.332 51.5H116.52L110.4 62C110.3 61.9 110.199 61.9 110.099 61.8L109.798 62.1C107.089 65.3 104.381 67.8 102.675 67.8C101.872 67.8 101.371 67.2 102.274 65.7L107.792 56.1C109.397 53.2 107.892 51.1 105.785 51.1C104.18 51.1 102.374 52 100.468 53.9L101.872 51.4H98.0599L91.94 61.9C91.8397 61.8 91.7394 61.7 91.5387 61.7L91.2377 62C88.5289 65.2 85.8201 67.7 84.1146 67.7C83.312 67.7 82.8103 67.1 83.7133 65.6L89.8332 54.9H87.626C87.7263 53.3 86.1211 51.1 83.6129 51.1C81.6064 51.1 78.6969 52.7 77.0917 55.5L73.179 62.3C72.878 62.1 72.577 61.9 72.3764 61.8L72.0754 62.1C69.3666 65.3 65.9555 67.8 62.2434 67.8C59.6349 67.8 58.0297 65.2 60.3372 61.3L61.4408 59.4C62.1431 59.5 62.8454 59.6 63.648 59.6C67.661 59.6 72.276 57.5 75.2858 52.3C76.3894 50.4 76.7907 48.7 76.7907 47.2C76.7907 43.8 74.5836 41.5 71.7744 41.5C69.6676 41.5 67.1594 43 65.4538 45.9L59.5346 56.1C57.3274 54.9 56.1235 52.8 56.1235 50.7C56.1235 48.9 56.9261 47.2 58.5313 45.9L57.3274 43.7C54.6186 45.6 53.4147 48.2 53.4147 50.8C53.4147 53.8 55.1202 56.7 58.2303 58.3L57.1267 60.3C54.4179 64.9 56.0232 70 61.4408 70C65.6545 70 68.8649 68.1 71.4734 65.6C70.6708 68 71.8747 70 74.5836 70C76.0885 70 77.9947 69 79.9009 67.5C80.1015 69 81.3054 70 83.2116 70C85.0175 70 87.024 68.9 88.9302 67.2L87.5257 69.6H91.3381L97.157 59.5C102.976 52.2 105.584 53.2 103.879 56L98.9629 64.6C97.3577 67.4 98.4612 70 101.571 70C103.578 70 105.885 68.6 108.093 66.6C107.591 68.7 108.594 70 110.5 70C112.306 70 114.413 68.5 116.119 66.9L114.012 70.5C108.895 72 105.584 74.1 105.584 77C105.584 80.6 111.203 81.4 113.912 76.7L116.821 71.7C120.031 70.7 123.142 68.7 126.452 65.5C125.951 70.8 132.974 72 137.288 66.6H138.09C139.495 66.6 141.401 66.1 143.107 65.1L140.598 69.5H144.411L150.23 59.4C156.049 52.1 158.657 53.1 156.952 55.9L152.036 64.5C150.43 67.3 151.534 69.9 154.644 69.9C157.754 69.9 161.366 66.5 164.576 62.9C164.476 62.6 163.774 62 163.272 61.8ZM68.564 47.6C69.6676 45.7 70.9718 44.8 71.9751 44.8C73.3796 44.8 74.0819 45.7 74.0819 47.1C74.0819 50.6 69.7679 57 63.8486 57H63.046L68.564 47.6ZM82.0077 62.4C79.7002 66 77.3927 67.7 75.8878 67.7C75.0852 67.7 74.5836 67.1 75.4865 65.6L80.8038 56.4C82.8103 52.9 86.9237 53.8 85.0175 57.2L82.0077 62.4ZM110.902 76.2C110.099 77.6 108.795 77.4 108.795 76.4C108.795 75.4 109.698 74.3 112.607 73.2L110.902 76.2ZM136.585 62H136.385C135.181 62 134.177 63 134.177 64.3C134.177 64.8 134.278 65.2 134.579 65.6V65.7C132.773 68.8 128.459 68.2 130.666 64.2L133.576 59.2L135.381 56.1C138.09 51.6 141.702 53.4 139.394 57.3L136.585 62Z" fill="white"/>
<path d="M251.459 63.1004C251.258 62.5004 250.556 61.9004 250.055 61.8004L249.754 62.1004C248.349 63.7004 246.643 65.2004 245.139 66.2004C246.342 62.6004 246.041 57.0004 248.449 52.2004L245.64 50.7004C244.035 52.9004 240.624 57.8004 237.213 61.8004L236.912 62.1004C234.203 65.3004 231.494 67.8004 229.789 67.8004C228.986 67.8004 228.183 67.0004 228.183 65.2004V63.6004C230.892 63.9004 233.701 62.2004 235.507 59.1004L236.51 57.3004C240.022 51.2004 234.303 49.2004 230.391 52.8004L235.808 43.4004H231.996L221.161 62.2004C220.96 62.0004 220.659 61.8004 220.458 61.7004L220.157 62.0004C217.448 65.2004 213.937 67.7004 211.228 67.7004C208.921 67.7004 207.516 66.2004 209.222 63.2004L213.134 56.4004C215.342 52.6004 219.254 53.3004 216.947 57.2004L216.445 58.1004H219.555L220.057 57.2004C222.063 53.7004 220.157 51.1004 217.047 51.1004C213.937 51.1004 211.529 52.7004 209.924 55.5004L206.212 61.9004C206.112 61.9004 206.011 61.8004 206.011 61.8004L205.71 62.1004C203.001 65.3004 200.293 67.8004 198.587 67.8004C197.784 67.8004 197.283 67.2004 198.186 65.7004L206.312 51.5004H202.5L195.778 63.3004C192.868 65.9004 190.661 67.4004 189.959 67.1004C189.056 66.7004 189.959 65.3004 190.461 64.5004L197.885 51.6004H194.072L186.648 64.3004C185.846 65.0004 184.943 65.7004 184.24 66.3004C185.444 62.7004 185.143 57.1004 187.551 52.3004L184.742 50.8004C183.137 53.0004 174.408 64.6004 170.897 68.6004C171.198 69.1004 171.8 69.5004 172.302 69.9004C174.509 67.4004 181.732 58.1004 183.036 56.3004C181.532 60.2004 182.334 67.3004 178.722 67.3004C177.418 67.3004 176.917 65.9004 176.917 65.9004L174.509 67.1004C174.509 67.1004 175.211 70.2004 178.722 70.2004C179.124 70.2004 179.425 70.2004 179.826 70.1004H179.926C181.833 69.8004 183.739 69.0004 185.545 67.7004C185.545 69.2004 186.448 70.2004 188.053 70.2004C190.16 70.2004 192.467 68.3004 194.273 66.6004C193.872 68.6004 195.076 70.2004 197.483 70.2004C199.891 70.2004 202.5 68.3004 205.008 65.8004C205.008 68.3004 207.014 70.2004 210.125 70.2004C213.235 70.2004 216.245 68.5004 218.953 66.2004L216.846 69.9004H220.659L224.973 62.4004V65.4004C224.973 68.6004 225.575 70.3004 228.685 70.3004C231.795 70.3004 235.407 66.9004 238.617 63.3004C240.824 60.8004 242.63 58.2004 244.035 56.4004C242.53 60.3004 243.333 67.4004 239.721 67.4004C238.417 67.4004 237.915 66.0004 237.915 66.0004L235.507 67.2004C235.507 67.2004 236.209 70.3004 239.721 70.3004C240.122 70.3004 240.423 70.3004 240.825 70.2004H240.925C244.737 69.5004 248.65 66.4004 251.459 63.1004ZM226.177 60.1004L227.28 58.2004C231.695 52.1004 234.705 53.8004 233.3 56.1004L231.494 59.2004C230.391 61.2004 227.08 62.6004 226.177 60.1004Z" fill="white"/>
<path d="M251.359 65.7002C250.155 65.7002 249.152 66.7002 249.152 67.9002C249.152 69.1002 250.055 70.1002 251.359 70.1002C252.563 70.1002 253.566 69.2002 253.566 67.9002C253.566 66.7002 252.563 65.7002 251.359 65.7002Z" fill="white"/>
<path d="M251.559 64.2H255.372L267.311 43.5H263.498L251.559 64.2Z" fill="white"/>
<path d="M6.4617 7.60019C6.4617 7.90019 6.36137 8.20018 6.26104 8.50018C6.16071 8.80018 5.96006 9.10017 5.75941 9.30017C5.55876 9.50017 5.25778 9.70018 4.9568 9.90018C4.65582 10.0002 4.25452 10.1002 3.85321 10.1002C3.35158 10.1002 2.95027 10.0002 2.54897 9.80017C2.14766 9.60017 1.74636 9.40019 1.44538 9.10019C1.1444 8.80019 1.04407 8.50019 0.843419 8.10019C0.743092 7.70019 0.642761 7.30017 0.642761 6.80017C0.642761 5.90017 0.843414 5.20018 1.14439 4.40018C1.44537 3.70018 1.84668 3.00018 2.44864 2.50018C2.64929 2.30018 2.95027 2.00017 3.25125 1.80017C3.55223 1.60017 3.85321 1.40017 4.15419 1.30017C4.45517 1.20017 4.65582 1.00018 4.85648 0.900177C5.05713 0.800177 5.15745 0.800195 5.25778 0.700195L6.66235 2.7002C6.46169 2.8002 6.16072 2.90019 5.85974 3.10019C5.55876 3.20019 5.25778 3.40019 4.9568 3.60019C4.65582 3.80019 4.45516 4.10018 4.25451 4.40018C4.05386 4.70018 3.95354 5.00018 3.95354 5.40018C4.65582 5.40018 5.15745 5.60018 5.65908 6.00018C6.26104 6.30018 6.4617 6.90019 6.4617 7.60019ZM14.3875 7.60019C14.3875 7.90019 14.2872 8.20018 14.1868 8.50018C14.0865 8.80018 13.8859 9.10017 13.6852 9.30017C13.4845 9.50017 13.1836 9.70018 12.8826 9.90018C12.5816 10.0002 12.1803 10.1002 11.779 10.1002C11.2774 10.1002 10.8761 10.0002 10.4748 9.80017C10.0735 9.60017 9.67215 9.40019 9.37117 9.10019C9.17051 8.80019 8.96985 8.50019 8.7692 8.10019C8.66887 7.70019 8.56855 7.30017 8.56855 6.80017C8.56855 5.90017 8.7692 5.20018 9.07018 4.40018C9.37116 3.70018 9.77247 3.00018 10.3744 2.50018C10.5751 2.30018 10.8761 2.00017 11.177 1.80017C11.478 1.60017 11.779 1.40017 12.08 1.30017C12.381 1.20017 12.5816 1.00018 12.7823 0.900177C12.9829 0.800177 13.0832 0.800195 13.1836 0.700195L14.5881 2.7002C14.3875 2.8002 14.0865 2.90019 13.7855 3.10019C13.4845 3.20019 13.1836 3.40019 12.8826 3.60019C12.5816 3.80019 12.381 4.10018 12.1803 4.40018C11.9796 4.70018 11.8793 5.00018 11.8793 5.40018C12.5816 5.40018 13.0832 5.60018 13.5849 6.00018C14.0865 6.30018 14.3875 6.90019 14.3875 7.60019Z" fill="white"/>
<path d="M280.353 66.5C280.353 66.2 280.453 65.9 280.554 65.6C280.654 65.3 280.855 65 281.055 64.8C281.256 64.6 281.557 64.4 281.858 64.2C282.159 64.1 282.56 64 282.961 64C283.463 64 283.864 64.1 284.266 64.3C284.667 64.5 285.068 64.7 285.369 65C285.67 65.3 285.771 65.6 285.971 66C286.072 66.4 286.172 66.8 286.172 67.3C286.172 68.2 285.971 68.9 285.67 69.7C285.369 70.4 284.968 71.1 284.366 71.6C284.165 71.8 283.864 72.1 283.563 72.3C283.262 72.5 282.961 72.7 282.66 72.8C282.36 72.9 282.159 73.1 281.958 73.2C281.758 73.3 281.657 73.3 281.557 73.4L280.152 71.4C280.353 71.3 280.654 71.2 280.955 71C281.256 70.9 281.557 70.7 281.858 70.5C282.159 70.3 282.359 70 282.56 69.7C282.761 69.4 282.861 69.1 282.861 68.7C282.159 68.7 281.657 68.5 281.156 68.1C280.654 67.8 280.353 67.2 280.353 66.5ZM272.528 66.5C272.528 66.2 272.628 65.9 272.728 65.6C272.828 65.3 273.029 65 273.23 64.8C273.43 64.6 273.731 64.4 274.032 64.2C274.333 64.1 274.735 64 275.136 64C275.638 64 276.039 64.1 276.44 64.3C276.842 64.5 277.243 64.7 277.544 65C277.744 65.3 277.945 65.6 278.146 66C278.246 66.4 278.346 66.8 278.346 67.3C278.346 68.2 278.146 68.9 277.845 69.7C277.544 70.4 277.143 71.1 276.541 71.6C276.34 71.8 276.039 72.1 275.738 72.3C275.437 72.5 275.136 72.7 274.835 72.8C274.534 72.9 274.333 73.1 274.133 73.2C273.932 73.3 273.832 73.3 273.731 73.4L272.327 71.4C272.628 71.3 272.828 71.2 273.129 71C273.43 70.9 273.731 70.7 274.032 70.5C274.333 70.3 274.534 70 274.735 69.7C274.935 69.4 275.036 69.1 275.036 68.7C274.333 68.7 273.832 68.5 273.33 68.1C272.728 67.8 272.528 67.2 272.528 66.5Z" fill="white"/>
</svg>
