<svg width="258" height="30" viewBox="0 0 258 30" fill="none" xmlns="http://www.w3.org/2000/svg">
<path d="M64.7392 14.9996L64.5385 15.1996C63.134 16.6996 61.5287 17.3996 60.0239 17.3996L62.833 12.4996C64.6389 9.39961 62.9333 6.39961 60.1242 6.39961C57.8167 6.39961 56.0108 7.29961 54.3052 10.2996L52.8004 12.8996L51.5964 14.9996L51.3958 15.1996C49.1886 17.6996 47.0817 19.6996 45.7775 19.6996C45.0752 19.6996 44.7742 19.1996 45.4765 18.0996L51.8974 6.89961H54.3052L55.2082 5.49961H52.7L55.5092 0.599609H52.4994L49.6902 5.49961H46.9814L46.0785 6.89961H48.7873L42.7677 17.2996C41.4635 19.4996 42.3664 21.5996 44.7742 21.5996C46.4798 21.5996 48.4863 20.2996 50.2922 18.4996C50.2922 22.2996 55.6095 23.0996 58.8199 18.9996H59.5222C61.3281 18.9996 64.1372 17.8996 65.6421 16.0996C65.6421 15.5996 65.1405 15.1996 64.7392 14.9996ZM58.3183 15.1996H58.218C57.2147 15.1996 56.4121 15.9996 56.4121 16.9996C56.4121 17.3996 56.5124 17.6996 56.7131 17.9996V18.0996C55.3085 20.4996 51.8974 20.0996 53.603 16.8996L55.9105 12.9996L57.315 10.5996C59.4219 6.99961 62.3314 8.39961 60.5255 11.4996L58.3183 15.1996Z" fill="#766458"/>
<path d="M106.375 14.9996L106.174 15.1996C103.967 17.6996 101.258 19.6996 99.1513 19.6996C97.3454 19.6996 96.2418 18.4996 97.5461 16.0996L97.847 15.5996C99.7532 16.3996 103.465 15.9996 105.672 12.0996L106.074 11.3996C107.679 8.59961 106.174 6.59961 103.666 6.59961C101.258 6.59961 99.3519 7.89961 98.0477 10.0996L95.1382 15.0996L94.9376 15.2996C92.7304 17.7996 90.6235 19.7996 89.3193 19.7996C88.617 19.7996 88.316 19.2996 89.0183 18.1996L93.3323 10.5996C94.6366 8.29961 93.4327 6.69961 91.7271 6.69961C90.4229 6.69961 89.0183 7.39961 87.5134 8.99961L92.3291 0.699612H89.3193L80.9922 14.9996L80.7915 15.1996C78.5843 17.6996 76.4775 19.6996 75.1733 19.6996C74.471 19.6996 74.17 19.1996 74.8723 18.0996L81.2932 6.89961H83.701L84.6039 5.49961H82.0958L84.9049 0.599609H81.8951L79.086 5.49961H76.3772L75.4742 6.89961H78.183L72.1635 17.2996C70.8592 19.4996 71.7622 21.5996 74.17 21.5996C75.3739 21.5996 76.6782 20.9996 77.9824 19.9996L77.1798 21.2996H80.1896L84.7043 13.3996C89.3193 7.59961 91.3258 8.39961 90.1219 10.5996L86.2092 17.3996C84.9049 19.5996 85.8079 21.6996 88.2157 21.6996C90.0216 21.6996 92.0281 20.2996 93.834 18.4996C93.9343 20.3996 95.5395 21.6996 97.9474 21.6996C101.358 21.6996 104.77 19.0996 107.177 16.1996C107.278 15.5996 106.776 15.1996 106.375 14.9996ZM100.656 10.7996C102.362 7.79961 105.472 8.29961 103.666 11.3996L103.265 12.0996C101.86 14.4996 99.8536 14.4996 98.75 14.0996L100.656 10.7996Z" fill="#766458"/>
<path d="M215.831 15L215.63 15.2C214.527 16.5 213.222 17.6 212.018 18.5C213.022 15.6 212.721 11.3 214.627 7.4L212.42 6.2C211.216 7.9 208.507 11.8 205.698 15L205.497 15.2C203.29 17.7 201.183 19.7 199.879 19.7C199.177 19.7 198.876 19.2 199.578 18.1L205.999 6.9H202.989L197.672 16.2C195.364 18.3 193.659 19.4 193.057 19.2C192.354 18.9 193.057 17.8 193.458 17.1L199.277 6.9H196.267L191.552 15L191.351 15.2C189.947 16.7 188.341 17.4 186.836 17.4L189.646 12.5C191.451 9.4 189.746 6.4 186.937 6.4C184.629 6.4 182.823 7.3 181.118 10.3L179.613 12.9L178.409 15L178.208 15.2C176.001 17.7 173.292 19.7 171.185 19.7C169.38 19.7 168.276 18.5 169.58 16.1L169.881 15.6C171.787 16.4 175.5 16 177.707 12.1L178.108 11.4C179.713 8.6 178.208 6.6 175.7 6.6C173.292 6.6 171.386 7.9 170.082 10.1L167.172 15.1L166.972 15.3C164.464 18.2 162.357 20 159.949 21L166.671 9.5H164.865C164.865 8.3 163.561 6.6 161.755 6.6C160.15 6.6 157.842 7.9 156.638 10.1L153.729 15.1L153.528 15.3C151.321 17.8 149.214 19.8 147.91 19.8C147.207 19.8 146.906 19.3 147.609 18.2L150.619 13C151.622 11.2 151.12 10.1 150.217 8.9L148.512 6.9C148.11 6.4 148.11 5.7 148.712 5.2L147.107 3.5C145.402 5 145.301 6.7 146.305 8.1L146.606 8.4C145.301 10.3 143.495 12.8 141.489 15.1L141.288 15.3C139.884 16.8 138.278 17.5 136.774 17.5L139.583 12.6C141.389 9.5 139.683 6.5 136.874 6.5C134.566 6.5 132.76 7.4 131.055 10.4L129.55 13L128.346 15.1L128.145 15.3C125.637 18.2 123.53 20 121.123 21L127.844 9.5H126.039C126.039 8.3 124.734 6.6 122.928 6.6C121.323 6.6 119.016 7.9 117.812 10.1L113.598 17.4C112.294 19.6 113.197 21.7 115.605 21.7C116.407 21.7 117.411 21.3 118.514 20.7L117.712 22.1C113.698 23.3 111.09 25 111.09 27.2C111.09 30.1 115.504 30.7 117.712 27L120.019 23.1C122.427 22.4 124.734 20.9 127.243 18.6C127.243 22.4 132.56 23.2 135.77 19.1H136.473C138.278 19.1 141.088 18 142.592 16.2C143.997 14.5 145.201 13 147.609 9.8L148.01 10.3C148.411 10.8 148.512 11.4 148.211 12L145 17.5C143.696 19.7 144.599 21.8 147.007 21.8C148.512 21.8 150.217 20.8 151.822 19.4C151.822 20.8 152.725 21.8 154.431 21.8C155.234 21.8 156.237 21.4 157.34 20.8L156.638 22C152.625 23.2 150.017 24.9 150.017 27.1C150.017 30 154.431 30.6 156.638 26.9L158.946 23C161.353 22.2 163.761 20.8 166.27 18.4C166.37 20.3 167.875 21.6 170.383 21.6C172.791 21.6 175.299 20.2 177.305 18.4C177.205 22.3 182.623 23.1 185.833 19H186.535C187.438 19 188.743 18.7 189.846 18.1C189.044 20.2 189.746 21.6 191.451 21.6C193.057 21.6 194.963 20.1 196.367 18.7C196.066 20.3 197.07 21.6 198.976 21.6C201.484 21.6 204.293 19 206.801 16.1C208.507 14.1 210.012 12 211.115 10.6C209.911 13.7 210.614 19.3 207.704 19.3C206.701 19.3 206.3 18.2 206.3 18.2L204.394 19.2C204.394 19.2 204.895 21.6 207.704 21.6C208.005 21.6 208.206 21.6 208.507 21.5H208.607C211.717 21.1 214.727 18.7 216.934 16.1C216.834 15.6 216.332 15.1 215.831 15ZM172.791 10.8C174.496 7.8 177.606 8.3 175.801 11.4L175.399 12.1C173.995 14.5 171.988 14.5 170.885 14.1L172.791 10.8ZM115.404 26.4C114.802 27.5 113.799 27.4 113.799 26.5C113.799 25.7 114.501 24.8 116.809 23.9L115.404 26.4ZM116.809 19.7C116.106 19.7 115.805 19.2 116.508 18.1L120.721 10.8C122.327 8 125.537 8.7 124.032 11.4L121.725 15.4C119.919 18.3 118.012 19.7 116.809 19.7ZM135.269 15.2H135.168C134.165 15.2 133.362 16 133.362 17C133.362 17.4 133.463 17.7 133.663 18V18.1C132.259 20.5 128.848 20.1 130.553 16.9L132.861 13L134.265 10.6C136.372 7 139.282 8.4 137.476 11.5L135.269 15.2ZM154.13 26.4C153.528 27.5 152.525 27.4 152.525 26.5C152.525 25.7 153.227 24.8 155.535 23.9L154.13 26.4ZM155.535 19.7C154.832 19.7 154.531 19.2 155.234 18.1L159.447 10.8C161.053 8 164.263 8.7 162.758 11.4L160.451 15.4C158.645 18.3 156.738 19.7 155.535 19.7ZM185.131 15.2H185.031C184.027 15.2 183.225 16 183.225 17C183.225 17.4 183.325 17.7 183.526 18V18.1C182.121 20.5 178.71 20.1 180.416 16.9L182.723 13L184.128 10.6C186.234 7 189.144 8.4 187.338 11.5L185.131 15.2Z" fill="#766458"/>
<path d="M29.5247 11.7998H0.530334V13.7998H29.5247V11.7998Z" fill="#766458"/>
<path d="M257.266 11.7998H228.271V13.7998H257.266V11.7998Z" fill="#766458"/>
</svg>
