<svg width="189" height="45" viewBox="0 0 189 45" fill="none" xmlns="http://www.w3.org/2000/svg">
<path d="M28.5321 0H36.2573L35.0533 44.9H20.506L18.4995 26.4L16.4929 44.9H1.8453L0.741699 0H8.36652L8.96846 37.2H9.77108L14.6871 0H22.3119L27.2279 37.2H28.0305L28.5321 0Z" fill="#81B3D3"/>
<path d="M60.4359 37.2V45H39.4677V0H60.4359V7.7H47.0925V18.5H57.7271V26.2H47.0925V37.1H60.4359V37.2Z" fill="#81B3D3"/>
<path d="M81.9057 37.2V45H63.546V0H71.1708V37.2H81.9057Z" fill="#81B3D3"/>
<path d="M98.1588 28.4L105.884 26.6V40.2C105.884 42.8 103.677 44.9 101.169 44.9H89.631C87.0225 44.9 84.9156 42.7 84.9156 40.2V4.7C84.9156 2.1 87.0225 0 89.631 0H101.169C103.677 0 105.884 2.1 105.884 4.7V13.8L98.1588 15.6V7.6H92.6408V37.1H98.1588V28.4Z" fill="#81B3D3"/>
<path d="M126.752 0C129.26 0 131.467 2.1 131.467 4.7V40.1C131.467 42.7 129.26 44.8 126.752 44.8H115.214C112.606 44.8 110.499 42.6 110.499 40.1V4.7C110.499 2.1 112.606 0 115.214 0H126.752ZM123.742 7.7H118.224V37.2H123.742V7.7Z" fill="#81B3D3"/>
<path d="M156.549 0H164.173V44.9H156.549V22.8L153.439 34.2H145.914L142.904 22.8V44.9H135.279V0H142.904L149.726 21.7L156.549 0Z" fill="#81B3D3"/>
<path d="M188.954 37.2V45H167.986V0H188.954V7.7H175.611V18.5H186.245V26.2H175.611V37.1H188.954V37.2Z" fill="#81B3D3"/>
</svg>
